<?xml version="1.0" encoding="UTF-8"?>
<svg xmlns="http://www.w3.org/2000/svg" xmlns:xlink="http://www.w3.org/1999/xlink" width="78px" height="93px" viewBox="0 0 78 93" version="1.1">
    
    <title>输入激活码，开通应用图标</title>
    <desc>Created with Sketch.</desc>
    <defs>
        <rect id="path-1" x="36" y="2" width="56" height="78"/>
        <rect id="path-2" x="33" y="0" width="56" height="78"/>
        <polygon id="path-3" points="26.7144771 56 0 56 0 0 26.7144771 0 53.4289541 0 53.4289541 56"/>
        <rect id="path-5" x="40" y="15" width="44" height="11"/>
        <rect id="path-6" x="40" y="30" width="25" height="11"/>
    </defs>
    <g id="云数据中心" stroke="none" stroke-width="1" fill="none" fill-rule="evenodd">
        <g id="云数据中心（无云数据中心）" transform="translate(-855.000000, -611.000000)">
            <g id="输入激活码，开通应用图标" transform="translate(830.000000, 611.000000)">
                <g id="Group-20" opacity="0.6">
                    <circle id="Oval" fill="#CBDBE4" cx="63.5" cy="40.5" r="38.5"/>
                    <g id="Rectangle">
                        <use fill="#F1F1F1" fill-rule="evenodd" xlink:href="#path-1"/>
                        <rect stroke="#D9D9D9" stroke-width="1" x="36.5" y="2.5" width="55" height="77"/>
                    </g>
                    <g id="Rectangle">
                        <use fill="#FFFFFF" fill-rule="evenodd" xlink:href="#path-2"/>
                        <rect stroke="#D9D9D9" stroke-width="1" x="33.5" y="0.5" width="55" height="77"/>
                    </g>
                    <rect id="Rectangle-3" fill="#9299AF" opacity="0.5" x="43" y="63" width="34.4272461" height="3"/>
                    <rect id="Rectangle-3" fill="#9299AF" opacity="0.5" x="43" y="70" width="34.4272461" height="3"/>
                    <circle id="Oval-5" fill="#E47F7F" cx="60.5" cy="80.5" r="12.5"/>
                    <path d="M60.678562,78.5 C62.059312,78.5 63.178562,79.61925 63.178562,81 C63.178562,82.3805 62.059312,83.5 60.678562,83.5 C59.298062,83.5 58.178562,82.3805 58.178562,81 C58.178562,79.61925 59.298062,78.5 60.678562,78.5 L60.678562,78.5 Z M66.099812,81.925 C66.150812,81.624 66.178562,81.3155 66.178562,81 C66.178562,80.6845 66.150812,80.376 66.099812,80.075 L67.195062,79.07025 C67.368062,78.91175 67.407312,78.65475 67.290312,78.45175 L66.191312,76.54825 C66.074062,76.34525 65.831812,76.251 65.608312,76.3215 L64.190562,76.7675 C63.716812,76.374 63.175812,76.0585 62.587812,75.84075 L62.265812,74.3915 C62.214812,74.16275 62.011812,74 61.777562,74 L59.579562,74 C59.345312,74 59.142312,74.16275 59.091562,74.3915 L58.769562,75.84075 C58.181312,76.0585 57.640562,76.374 57.166562,76.7675 L55.749062,76.3215 C55.525562,76.251 55.283062,76.34525 55.165812,76.54825 L54.067062,78.45175 C53.949812,78.65475 53.989312,78.91175 54.162062,79.07025 L55.257562,80.075 C55.206562,80.376 55.178562,80.6845 55.178562,81 C55.178562,81.3155 55.206562,81.624 55.257562,81.925 L54.162062,82.92975 C53.989312,83.08825 53.949812,83.34525 54.067062,83.54825 L55.165812,85.45175 C55.283062,85.65475 55.525562,85.749 55.749062,85.6785 L57.166562,85.2325 C57.640562,85.626 58.181312,85.9415 58.769562,86.15925 L59.091562,87.6085 C59.142312,87.83725 59.345312,88 59.579562,88 L61.777562,88 C62.011812,88 62.214812,87.83725 62.265812,87.6085 L62.587812,86.15925 C63.176062,85.9415 63.716812,85.626 64.190562,85.2325 L65.608312,85.6785 C65.831812,85.749 66.074062,85.65475 66.191312,85.45175 L67.290312,83.54825 C67.407312,83.34525 67.368062,83.08825 67.195062,82.92975 L66.099812,81.925 Z" id="Fill-1" fill="#FFFFFF"/>
                    <g id="Page-1" transform="translate(0.000000, 1.000000)">
                        <mask id="mask-4" fill="white">
                            <use xlink:href="#path-3"/>
                        </mask>
                        <g id="Clip-2"/>
                    </g>
                </g>
                <g id="Rectangle-5">
                    <use fill="#F6F8FC" fill-rule="evenodd" xlink:href="#path-5"/>
                    <rect stroke="#D9D9D9" stroke-width="1" x="40.5" y="15.5" width="43" height="10"/>
                </g>
                <g id="Rectangle-5">
                    <use fill="#F6F8FC" fill-rule="evenodd" xlink:href="#path-6"/>
                    <rect stroke="#D9D9D9" stroke-width="1" x="40.5" y="30.5" width="24" height="10"/>
                </g>
                <rect id="Rectangle-5" fill="#E37F7F" x="69" y="30" width="15" height="11"/>
                <path d="M95.9111328,38.9396973 L78,35 L79.8249512,51.4985352 L84.1828613,47.8942871 C86.4807129,50.7266439 89.2451172,53.878418 92.4760742,57.3496094 C94.8325195,55.3826497 98.1451009,52.6036784 102.413818,49.0126953 L91.8525391,42.4638672 L95.9111328,38.9396973 Z" id="Path-3" stroke="#BEBCBC" fill="#FFFFFF"/>
            </g>
        </g>
    </g>
</svg>
